<svg width="181" height="27" viewBox="0 0 181 27" fill="none" xmlns="http://www.w3.org/2000/svg">
    <path
        d="M53.3203 20.283V5.88299H60.1603C61.227 5.88299 62.1403 6.06966 62.9003 6.44299C63.6736 6.81632 64.267 7.33632 64.6803 8.00299C65.107 8.66966 65.3203 9.44966 65.3203 10.343C65.3203 11.2363 65.107 12.023 64.6803 12.703C64.2536 13.383 63.6536 13.9163 62.8803 14.303C62.1203 14.6763 61.2136 14.863 60.1603 14.863H55.7603V12.503H60.0003C60.707 12.503 61.2536 12.3097 61.6403 11.923C62.0403 11.523 62.2403 11.003 62.2403 10.363C62.2403 9.72299 62.0403 9.20966 61.6403 8.82299C61.2536 8.43632 60.707 8.24299 60.0003 8.24299H56.4003V20.283H53.3203ZM65.9578 20.283V10.083H68.8978V12.483H68.9578V20.283H65.9578ZM68.9578 14.963L68.6978 12.543C68.9378 11.6763 69.3311 11.0163 69.8778 10.563C70.4245 10.1097 71.1045 9.88299 71.9178 9.88299C72.1711 9.88299 72.3578 9.90966 72.4778 9.96299V12.763C72.4111 12.7363 72.3178 12.723 72.1978 12.723C72.0778 12.7097 71.9311 12.703 71.7578 12.703C70.7978 12.703 70.0911 12.8763 69.6378 13.223C69.1845 13.5563 68.9578 14.1363 68.9578 14.963ZM72.7703 20.283V10.083H75.7703V20.283H72.7703ZM72.6703 8.72299V5.48299H75.8703V8.72299H72.6703ZM77.1609 20.283V10.083H80.1009V12.483H80.1609V20.283H77.1609ZM84.0209 20.283V13.803C84.0209 13.283 83.8809 12.903 83.6009 12.663C83.3343 12.4097 82.9543 12.283 82.4609 12.283C82.0343 12.283 81.6409 12.383 81.2809 12.583C80.9343 12.7697 80.6609 13.043 80.4609 13.403C80.2609 13.7497 80.1609 14.163 80.1609 14.643L79.9009 12.343C80.2343 11.5963 80.7143 11.003 81.3409 10.563C81.9809 10.1097 82.7476 9.88299 83.6409 9.88299C84.7076 9.88299 85.5343 10.183 86.1209 10.783C86.7209 11.383 87.0209 12.1363 87.0209 13.043V20.283H84.0209ZM90.8809 20.283V13.803C90.8809 13.283 90.7409 12.903 90.4609 12.663C90.1943 12.4097 89.8143 12.283 89.3209 12.283C88.8943 12.283 88.5009 12.383 88.1409 12.583C87.7943 12.7697 87.5209 13.043 87.3209 13.403C87.1209 13.7497 87.0209 14.163 87.0209 14.643L86.5609 12.343C86.8943 11.5963 87.3876 11.003 88.0409 10.563C88.7076 10.1097 89.5076 9.88299 90.4409 9.88299C91.5476 9.88299 92.3943 10.1963 92.9809 10.823C93.5809 11.4363 93.8809 12.243 93.8809 13.243V20.283H90.8809ZM101.331 20.283C101.251 19.9897 101.191 19.6763 101.151 19.343C101.124 19.0097 101.111 18.623 101.111 18.183H101.031V13.363C101.031 12.9497 100.891 12.6297 100.611 12.403C100.344 12.163 99.9443 12.043 99.4109 12.043C98.9043 12.043 98.4976 12.1297 98.1909 12.303C97.8976 12.4763 97.7043 12.7297 97.6109 13.063H94.7509C94.8843 12.143 95.3576 11.383 96.1709 10.783C96.9843 10.183 98.0976 9.88299 99.5109 9.88299C100.978 9.88299 102.098 10.2097 102.871 10.863C103.644 11.5163 104.031 12.4563 104.031 13.683V18.183C104.031 18.5163 104.051 18.8563 104.091 19.203C104.144 19.5363 104.224 19.8963 104.331 20.283H101.331ZM97.7709 20.483C96.7576 20.483 95.9509 20.2297 95.3509 19.723C94.7509 19.203 94.4509 18.5163 94.4509 17.663C94.4509 16.7163 94.8043 15.9563 95.5109 15.383C96.2309 14.7963 97.2309 14.4163 98.5109 14.243L101.491 13.823V15.563L99.0109 15.943C98.4776 16.023 98.0843 16.1697 97.8309 16.383C97.5776 16.5963 97.4509 16.8897 97.4509 17.263C97.4509 17.5963 97.5709 17.8497 97.8109 18.023C98.0509 18.1963 98.3709 18.283 98.7709 18.283C99.3976 18.283 99.9309 18.1163 100.371 17.783C100.811 17.4363 101.031 17.0363 101.031 16.583L101.311 18.183C101.018 18.943 100.571 19.5163 99.9709 19.903C99.3709 20.2897 98.6376 20.483 97.7709 20.483ZM105.337 20.283V5.88299H108.337V20.283H105.337ZM113.707 20.283V8.24299H109.007V5.88299H121.487V8.24299H116.787V20.283H113.707ZM119.997 20.283V10.083H122.937V12.483H122.997V20.283H119.997ZM122.997 14.963L122.737 12.543C122.977 11.6763 123.37 11.0163 123.917 10.563C124.464 10.1097 125.144 9.88299 125.957 9.88299C126.21 9.88299 126.397 9.90966 126.517 9.96299V12.763C126.45 12.7363 126.357 12.723 126.237 12.723C126.117 12.7097 125.97 12.703 125.797 12.703C124.837 12.703 124.13 12.8763 123.677 13.223C123.224 13.5563 122.997 14.1363 122.997 14.963ZM133.015 20.283C132.935 19.9897 132.875 19.6763 132.835 19.343C132.808 19.0097 132.795 18.623 132.795 18.183H132.715V13.363C132.715 12.9497 132.575 12.6297 132.295 12.403C132.028 12.163 131.628 12.043 131.095 12.043C130.588 12.043 130.181 12.1297 129.875 12.303C129.581 12.4763 129.388 12.7297 129.295 13.063H126.435C126.568 12.143 127.041 11.383 127.855 10.783C128.668 10.183 129.781 9.88299 131.195 9.88299C132.661 9.88299 133.781 10.2097 134.555 10.863C135.328 11.5163 135.715 12.4563 135.715 13.683V18.183C135.715 18.5163 135.735 18.8563 135.775 19.203C135.828 19.5363 135.908 19.8963 136.015 20.283H133.015ZM129.455 20.483C128.441 20.483 127.635 20.2297 127.035 19.723C126.435 19.203 126.135 18.5163 126.135 17.663C126.135 16.7163 126.488 15.9563 127.195 15.383C127.915 14.7963 128.915 14.4163 130.195 14.243L133.175 13.823V15.563L130.695 15.943C130.161 16.023 129.768 16.1697 129.515 16.383C129.261 16.5963 129.135 16.8897 129.135 17.263C129.135 17.5963 129.255 17.8497 129.495 18.023C129.735 18.1963 130.055 18.283 130.455 18.283C131.081 18.283 131.615 18.1163 132.055 17.783C132.495 17.4363 132.715 17.0363 132.715 16.583L132.995 18.183C132.701 18.943 132.255 19.5163 131.655 19.903C131.055 20.2897 130.321 20.483 129.455 20.483ZM136.591 20.283V10.083H139.591V20.283H136.591ZM136.491 8.72299V5.48299H139.691V8.72299H136.491ZM140.981 20.283V10.083H143.921V12.483H143.981V20.283H140.981ZM148.081 20.283V13.963C148.081 13.403 147.935 12.983 147.641 12.703C147.361 12.423 146.948 12.283 146.401 12.283C145.935 12.283 145.515 12.3897 145.141 12.603C144.781 12.8163 144.495 13.1097 144.281 13.483C144.081 13.8563 143.981 14.2963 143.981 14.803L143.721 12.343C144.055 11.5963 144.541 11.003 145.181 10.563C145.835 10.1097 146.635 9.88299 147.581 9.88299C148.715 9.88299 149.581 10.203 150.181 10.843C150.781 11.4697 151.081 12.3163 151.081 13.383V20.283H148.081ZM152.247 20.283V10.083H155.247V20.283H152.247ZM152.147 8.72299V5.48299H155.347V8.72299H152.147ZM156.638 20.283V10.083H159.578V12.483H159.638V20.283H156.638ZM163.738 20.283V13.963C163.738 13.403 163.591 12.983 163.298 12.703C163.018 12.423 162.604 12.283 162.058 12.283C161.591 12.283 161.171 12.3897 160.798 12.603C160.438 12.8163 160.151 13.1097 159.938 13.483C159.738 13.8563 159.638 14.2963 159.638 14.803L159.378 12.343C159.711 11.5963 160.198 11.003 160.838 10.563C161.491 10.1097 162.291 9.88299 163.238 9.88299C164.371 9.88299 165.238 10.203 165.838 10.843C166.438 11.4697 166.737 12.3163 166.737 13.383V20.283H163.738ZM172.681 24.583C171.268 24.583 170.115 24.283 169.221 23.683C168.341 23.083 167.821 22.2697 167.661 21.243H170.501C170.608 21.4963 170.835 21.6897 171.181 21.823C171.541 21.9563 171.995 22.023 172.541 22.023C173.448 22.023 174.108 21.8497 174.521 21.503C174.935 21.1563 175.141 20.6163 175.141 19.883V17.663L175.301 17.703C175.168 18.4497 174.781 19.043 174.141 19.483C173.501 19.9097 172.708 20.123 171.761 20.123C170.855 20.123 170.061 19.9163 169.381 19.503C168.715 19.0763 168.195 18.483 167.821 17.723C167.448 16.963 167.261 16.0697 167.261 15.043C167.261 14.003 167.455 13.0963 167.841 12.323C168.228 11.5497 168.768 10.9497 169.461 10.523C170.168 10.0963 170.988 9.88299 171.921 9.88299C172.881 9.88299 173.661 10.1097 174.261 10.563C174.875 11.0163 175.235 11.6363 175.341 12.423L175.201 12.443V10.083H178.141V19.843C178.141 21.3097 177.655 22.463 176.681 23.303C175.708 24.1563 174.375 24.583 172.681 24.583ZM172.801 17.823C173.508 17.823 174.081 17.583 174.521 17.103C174.961 16.6097 175.181 15.9097 175.181 15.003C175.181 14.0963 174.955 13.403 174.501 12.923C174.061 12.4297 173.481 12.183 172.761 12.183C172.068 12.183 171.495 12.4297 171.041 12.923C170.601 13.4163 170.381 14.1163 170.381 15.023C170.381 15.9297 170.601 16.623 171.041 17.103C171.495 17.583 172.081 17.823 172.801 17.823Z"
        fill="black" />
    <path
        d="M47.41 12.89C47.41 20.009 41.6394 25.78 34.5209 25.78C27.4025 25.78 21.6319 20.009 21.6319 12.89C21.6319 5.77108 27.4025 3.05176e-05 34.5209 3.05176e-05C41.6394 3.05176e-05 47.41 5.77108 47.41 12.89Z"
        fill="black" />
    <path
        d="M10.7898 12.887C10.7898 18.8819 15.6493 23.7417 21.6437 23.7417V2.03224C15.6493 2.03224 10.7898 6.89207 10.7898 12.887Z"
        fill="black" />
    <path
        d="M4 12.886C4 16.6329 7.03717 19.6703 10.7837 19.6703V6.10184C7.03717 6.10184 4 9.13923 4 12.886Z"
        fill="black" />
</svg>